REM MD5 059de9544b33812e50e85249834f6b10
FILE "Power Source (Europe).bin" BINARY
  TRACK 01 MODE2/2352
    INDEX 01 00:00:00
  TRACK 02 AUDIO
    INDEX 00 55:24:62
    INDEX 01 55:26:62
  TRACK 03 AUDIO
    INDEX 00 56:29:49
    INDEX 01 56:31:49
REM LEADOUT 59:49:04
